<?xml version="1.0" standalone="no"?><svg xmlns:xlink="http://www.w3.org/1999/xlink" xmlns="http://www.w3.org/2000/svg" viewBox="0 0 1000 818.188697330088" preserveAspectRatio="xMaxYMax slice"><g transform="scale(1.5764714784780114)"><rect x="0" y="0" width="634.3333333333333" height="519" fill="#ffffff"/><circle cx="86.495" cy="28.835" r="5.765" fill="#FF4C29"/><circle cx="432.495" cy="28.835" r="5.765" fill="#FF4C29"/><circle cx="605.495" cy="28.835" r="5.765" fill="#FF4C29"/><circle cx="86.5" cy="86.5" r="7.11" fill="#FF4C29"/><circle cx="259.505" cy="86.50500000000001" r="11.135" fill="#FF4C29"/><circle cx="374.84000000000003" cy="86.5" r="11.92" fill="#FF4C29"/><circle cx="547.83" cy="86.5" r="8.45" fill="#FF4C29"/><circle cx="605.5" cy="86.5" r="7.11" fill="#FF4C29"/><circle cx="28.835" cy="144.165" r="5.765" fill="#FF4C29"/><circle cx="144.165" cy="144.165" r="11.135" fill="#FF4C29"/><circle cx="317.17" cy="144.17" r="18.07" fill="#FF4C29"/><circle cx="28.835" cy="201.83499999999998" r="5.765" fill="#FF4C29"/><circle cx="144.17" cy="201.82999999999998" r="13.82" fill="#FF4C29"/><circle cx="374.83000000000004" cy="201.83" r="24.22" fill="#FF4C29"/><circle cx="490.16499999999996" cy="201.835" r="17.845" fill="#FF4C29"/><circle cx="28.835" cy="259.495" r="5.765" fill="#FF4C29"/><circle cx="86.5" cy="259.5" r="10.8" fill="#FF4C29"/><circle cx="144.16000000000003" cy="259.5" r="15.83" fill="#FF4C29"/><circle cx="201.835" cy="259.505" r="20.865" fill="#FF4C29"/><circle cx="374.835" cy="259.505" r="28.835" fill="#FF4C29"/><circle cx="490.165" cy="259.505" r="20.865" fill="#FF4C29"/><circle cx="86.5" cy="317.17" r="10.8" fill="#FF4C29"/><circle cx="317.16499999999996" cy="317.16499999999996" r="28.835" fill="#FF4C29"/><circle cx="259.5" cy="374.83" r="21.87" fill="#FF4C29"/><circle cx="432.5" cy="374.83" r="21.87" fill="#FF4C29"/><circle cx="490.16499999999996" cy="374.83500000000004" r="17.845" fill="#FF4C29"/><circle cx="605.505" cy="374.83500000000004" r="9.795" fill="#FF4C29"/><circle cx="201.82999999999998" cy="432.5" r="13.82" fill="#FF4C29"/><circle cx="259.505" cy="432.505" r="16.505" fill="#FF4C29"/><circle cx="432.505" cy="432.505" r="16.505" fill="#FF4C29"/><circle cx="86.5" cy="490.17" r="7.11" fill="#FF4C29"/><circle cx="201.83499999999998" cy="490.165" r="9.795" fill="#FF4C29"/><circle cx="432.505" cy="490.16499999999996" r="11.135" fill="#FF4C29"/></g></svg>