
  <svg
    width="2000"
    height="2000"
    viewBox="0 0 1000 1000"
    xmlns="http://www.w3.org/2000/svg"
  >
    <defs>
      
      
      
      
      
      
      
      <clipPath id="shape">
        <path fill="currentColor" d="M856.5,676.5Q853,853,676.5,873.5Q500,894,349.5,847.5Q199,801,107.5,650.5Q16,500,90.5,332.5Q165,165,332.5,154Q500,143,633.5,188Q767,233,813.5,366.5Q860,500,856.5,676.5Z"></path>
      </clipPath>
    </defs>
  
    

    <g  clip-path="url(#shape)">
      <path fill="#FF4C29" d="M856.5,676.5Q853,853,676.5,873.5Q500,894,349.5,847.5Q199,801,107.5,650.5Q16,500,90.5,332.5Q165,165,332.5,154Q500,143,633.5,188Q767,233,813.5,366.5Q860,500,856.5,676.5Z" />
    </g>

    
  
  </svg>